<mxfile host="app.diagrams.net" agent="Mozilla/5.0 (Windows NT 10.0; Win64; x64) AppleWebKit/537.36 (KHTML, like Gecko) Chrome/131.0.0.0 Safari/537.36" version="25.0.3">
  <diagram name="Page-1" id="JoSQM3YIyb0G2uhmGGB5">
    <mxGraphModel dx="1444" dy="811" grid="1" gridSize="10" guides="1" tooltips="1" connect="1" arrows="1" fold="1" page="1" pageScale="1" pageWidth="1100" pageHeight="1700" math="0" shadow="0">
      <root>
        <mxCell id="0" />
        <mxCell id="1" parent="0" />
        <mxCell id="HBaZykuA45TmuVsnz5Kd-19" style="edgeStyle=orthogonalEdgeStyle;rounded=0;orthogonalLoop=1;jettySize=auto;html=1;exitX=0.25;exitY=0;exitDx=0;exitDy=0;entryX=0.5;entryY=1;entryDx=0;entryDy=0;endArrow=none;endFill=0;curved=1;labelBackgroundColor=none;strokeColor=#788AA3;fontColor=default;" edge="1" parent="1" source="HBaZykuA45TmuVsnz5Kd-2" target="HBaZykuA45TmuVsnz5Kd-18">
          <mxGeometry relative="1" as="geometry" />
        </mxCell>
        <mxCell id="HBaZykuA45TmuVsnz5Kd-20" style="edgeStyle=orthogonalEdgeStyle;rounded=0;orthogonalLoop=1;jettySize=auto;html=1;exitX=0.75;exitY=0;exitDx=0;exitDy=0;entryX=0.5;entryY=1;entryDx=0;entryDy=0;endArrow=none;endFill=0;curved=1;labelBackgroundColor=none;strokeColor=#788AA3;fontColor=default;" edge="1" parent="1" source="HBaZykuA45TmuVsnz5Kd-2" target="HBaZykuA45TmuVsnz5Kd-17">
          <mxGeometry relative="1" as="geometry" />
        </mxCell>
        <mxCell id="HBaZykuA45TmuVsnz5Kd-62" style="edgeStyle=orthogonalEdgeStyle;shape=connector;curved=1;rounded=0;orthogonalLoop=1;jettySize=auto;html=1;exitX=0;exitY=0.25;exitDx=0;exitDy=0;entryX=1;entryY=0.5;entryDx=0;entryDy=0;strokeColor=#788AA3;align=center;verticalAlign=middle;fontFamily=Helvetica;fontSize=11;fontColor=default;labelBackgroundColor=none;endArrow=none;endFill=0;" edge="1" parent="1" source="HBaZykuA45TmuVsnz5Kd-2" target="HBaZykuA45TmuVsnz5Kd-61">
          <mxGeometry relative="1" as="geometry" />
        </mxCell>
        <mxCell id="HBaZykuA45TmuVsnz5Kd-64" style="edgeStyle=orthogonalEdgeStyle;shape=connector;curved=1;rounded=0;orthogonalLoop=1;jettySize=auto;html=1;exitX=1;exitY=0.5;exitDx=0;exitDy=0;entryX=0;entryY=0.5;entryDx=0;entryDy=0;strokeColor=#788AA3;align=center;verticalAlign=middle;fontFamily=Helvetica;fontSize=11;fontColor=default;labelBackgroundColor=none;endArrow=none;endFill=0;" edge="1" parent="1" source="HBaZykuA45TmuVsnz5Kd-2" target="HBaZykuA45TmuVsnz5Kd-63">
          <mxGeometry relative="1" as="geometry" />
        </mxCell>
        <mxCell id="HBaZykuA45TmuVsnz5Kd-69" style="edgeStyle=orthogonalEdgeStyle;shape=connector;curved=0;rounded=0;orthogonalLoop=1;jettySize=auto;html=1;exitX=0.75;exitY=1;exitDx=0;exitDy=0;entryX=0.5;entryY=0;entryDx=0;entryDy=0;strokeColor=#788AA3;align=center;verticalAlign=middle;fontFamily=Helvetica;fontSize=11;fontColor=default;labelBackgroundColor=none;endArrow=none;endFill=0;" edge="1" parent="1" source="HBaZykuA45TmuVsnz5Kd-2" target="HBaZykuA45TmuVsnz5Kd-68">
          <mxGeometry relative="1" as="geometry" />
        </mxCell>
        <mxCell id="HBaZykuA45TmuVsnz5Kd-78" style="edgeStyle=orthogonalEdgeStyle;shape=connector;curved=0;rounded=0;orthogonalLoop=1;jettySize=auto;html=1;exitX=0.5;exitY=1;exitDx=0;exitDy=0;entryX=0.5;entryY=0;entryDx=0;entryDy=0;strokeColor=#788AA3;align=center;verticalAlign=middle;fontFamily=Helvetica;fontSize=11;fontColor=default;labelBackgroundColor=none;endArrow=none;endFill=0;" edge="1" parent="1" source="HBaZykuA45TmuVsnz5Kd-2" target="HBaZykuA45TmuVsnz5Kd-77">
          <mxGeometry relative="1" as="geometry" />
        </mxCell>
        <mxCell id="HBaZykuA45TmuVsnz5Kd-2" value="USERS" style="rounded=0;whiteSpace=wrap;html=1;labelBackgroundColor=none;fillColor=#B2C9AB;strokeColor=#788AA3;fontColor=#46495D;" vertex="1" parent="1">
          <mxGeometry x="290" y="160" width="100" height="40" as="geometry" />
        </mxCell>
        <mxCell id="HBaZykuA45TmuVsnz5Kd-17" value="USERNAME" style="ellipse;whiteSpace=wrap;html=1;labelBackgroundColor=none;fillColor=#B2C9AB;strokeColor=#788AA3;fontColor=#46495D;" vertex="1" parent="1">
          <mxGeometry x="340" y="60" width="130" height="40" as="geometry" />
        </mxCell>
        <mxCell id="HBaZykuA45TmuVsnz5Kd-18" value="USER_PASSWORD" style="ellipse;whiteSpace=wrap;html=1;labelBackgroundColor=none;fillColor=#B2C9AB;strokeColor=#788AA3;fontColor=#46495D;" vertex="1" parent="1">
          <mxGeometry x="180" y="60" width="120" height="40" as="geometry" />
        </mxCell>
        <mxCell id="HBaZykuA45TmuVsnz5Kd-81" style="edgeStyle=orthogonalEdgeStyle;shape=connector;curved=1;rounded=0;orthogonalLoop=1;jettySize=auto;html=1;exitX=1;exitY=0.5;exitDx=0;exitDy=0;entryX=0;entryY=0.25;entryDx=0;entryDy=0;strokeColor=#788AA3;align=center;verticalAlign=middle;fontFamily=Helvetica;fontSize=11;fontColor=default;labelBackgroundColor=none;endArrow=none;endFill=0;" edge="1" parent="1" source="HBaZykuA45TmuVsnz5Kd-21" target="HBaZykuA45TmuVsnz5Kd-80">
          <mxGeometry relative="1" as="geometry" />
        </mxCell>
        <mxCell id="HBaZykuA45TmuVsnz5Kd-21" value="REVENUE" style="ellipse;whiteSpace=wrap;html=1;labelBackgroundColor=none;fillColor=#B2C9AB;strokeColor=#788AA3;fontColor=#46495D;" vertex="1" parent="1">
          <mxGeometry x="140" y="450" width="90" height="40" as="geometry" />
        </mxCell>
        <mxCell id="HBaZykuA45TmuVsnz5Kd-23" value="&lt;font style=&quot;font-size: 9px;&quot;&gt;PLATE_NUMBER&lt;/font&gt;" style="ellipse;whiteSpace=wrap;html=1;labelBackgroundColor=none;fillColor=#B2C9AB;strokeColor=#788AA3;fontColor=#46495D;" vertex="1" parent="1">
          <mxGeometry x="740" y="400" width="100" height="30" as="geometry" />
        </mxCell>
        <mxCell id="HBaZykuA45TmuVsnz5Kd-24" value="&lt;font style=&quot;font-size: 9px;&quot;&gt;BALANCE&lt;/font&gt;" style="ellipse;whiteSpace=wrap;html=1;labelBackgroundColor=none;fillColor=#B2C9AB;strokeColor=#788AA3;fontColor=#46495D;" vertex="1" parent="1">
          <mxGeometry x="750" y="450" width="100" height="30" as="geometry" />
        </mxCell>
        <mxCell id="HBaZykuA45TmuVsnz5Kd-25" value="&lt;font style=&quot;font-size: 9px;&quot;&gt;PAYMENT_METHOD&lt;/font&gt;" style="ellipse;whiteSpace=wrap;html=1;labelBackgroundColor=none;fillColor=#B2C9AB;strokeColor=#788AA3;fontColor=#46495D;" vertex="1" parent="1">
          <mxGeometry x="575" y="335" width="110" height="30" as="geometry" />
        </mxCell>
        <mxCell id="HBaZykuA45TmuVsnz5Kd-26" value="&lt;font style=&quot;font-size: 9px;&quot;&gt;LICENSE_NUMBER&lt;/font&gt;" style="ellipse;whiteSpace=wrap;html=1;labelBackgroundColor=none;fillColor=#B2C9AB;strokeColor=#788AA3;fontColor=#46495D;" vertex="1" parent="1">
          <mxGeometry x="680" y="360" width="97.5" height="30" as="geometry" />
        </mxCell>
        <mxCell id="HBaZykuA45TmuVsnz5Kd-41" style="edgeStyle=orthogonalEdgeStyle;shape=connector;curved=1;rounded=0;orthogonalLoop=1;jettySize=auto;html=1;exitX=0;exitY=0.25;exitDx=0;exitDy=0;entryX=1;entryY=0.5;entryDx=0;entryDy=0;strokeColor=#788AA3;align=center;verticalAlign=middle;fontFamily=Helvetica;fontSize=11;fontColor=default;labelBackgroundColor=none;endArrow=none;endFill=0;" edge="1" parent="1" source="HBaZykuA45TmuVsnz5Kd-32" target="HBaZykuA45TmuVsnz5Kd-33">
          <mxGeometry relative="1" as="geometry" />
        </mxCell>
        <mxCell id="HBaZykuA45TmuVsnz5Kd-42" style="edgeStyle=orthogonalEdgeStyle;shape=connector;curved=1;rounded=0;orthogonalLoop=1;jettySize=auto;html=1;exitX=0;exitY=0.5;exitDx=0;exitDy=0;entryX=1;entryY=0.5;entryDx=0;entryDy=0;strokeColor=#788AA3;align=center;verticalAlign=middle;fontFamily=Helvetica;fontSize=11;fontColor=default;labelBackgroundColor=none;endArrow=none;endFill=0;" edge="1" parent="1" source="HBaZykuA45TmuVsnz5Kd-32" target="HBaZykuA45TmuVsnz5Kd-34">
          <mxGeometry relative="1" as="geometry" />
        </mxCell>
        <mxCell id="HBaZykuA45TmuVsnz5Kd-43" style="edgeStyle=orthogonalEdgeStyle;shape=connector;curved=1;rounded=0;orthogonalLoop=1;jettySize=auto;html=1;exitX=0;exitY=0.75;exitDx=0;exitDy=0;entryX=1;entryY=0.5;entryDx=0;entryDy=0;strokeColor=#788AA3;align=center;verticalAlign=middle;fontFamily=Helvetica;fontSize=11;fontColor=default;labelBackgroundColor=none;endArrow=none;endFill=0;" edge="1" parent="1" source="HBaZykuA45TmuVsnz5Kd-32" target="HBaZykuA45TmuVsnz5Kd-35">
          <mxGeometry relative="1" as="geometry" />
        </mxCell>
        <mxCell id="HBaZykuA45TmuVsnz5Kd-45" style="edgeStyle=orthogonalEdgeStyle;shape=connector;curved=1;rounded=0;orthogonalLoop=1;jettySize=auto;html=1;exitX=0.75;exitY=1;exitDx=0;exitDy=0;entryX=0.5;entryY=0;entryDx=0;entryDy=0;strokeColor=#788AA3;align=center;verticalAlign=middle;fontFamily=Helvetica;fontSize=11;fontColor=default;labelBackgroundColor=none;endArrow=none;endFill=0;" edge="1" parent="1" source="HBaZykuA45TmuVsnz5Kd-32" target="HBaZykuA45TmuVsnz5Kd-37">
          <mxGeometry relative="1" as="geometry" />
        </mxCell>
        <mxCell id="HBaZykuA45TmuVsnz5Kd-46" style="edgeStyle=orthogonalEdgeStyle;shape=connector;curved=1;rounded=0;orthogonalLoop=1;jettySize=auto;html=1;exitX=1;exitY=1;exitDx=0;exitDy=0;entryX=0;entryY=0;entryDx=0;entryDy=0;strokeColor=#788AA3;align=center;verticalAlign=middle;fontFamily=Helvetica;fontSize=11;fontColor=default;labelBackgroundColor=none;endArrow=none;endFill=0;" edge="1" parent="1" source="HBaZykuA45TmuVsnz5Kd-32" target="HBaZykuA45TmuVsnz5Kd-39">
          <mxGeometry relative="1" as="geometry" />
        </mxCell>
        <mxCell id="HBaZykuA45TmuVsnz5Kd-59" style="edgeStyle=orthogonalEdgeStyle;shape=connector;curved=0;rounded=0;orthogonalLoop=1;jettySize=auto;html=1;exitX=0.5;exitY=1;exitDx=0;exitDy=0;entryX=0.5;entryY=0;entryDx=0;entryDy=0;strokeColor=#788AA3;align=center;verticalAlign=middle;fontFamily=Helvetica;fontSize=11;fontColor=default;labelBackgroundColor=none;endArrow=none;endFill=0;" edge="1" parent="1" source="HBaZykuA45TmuVsnz5Kd-32" target="HBaZykuA45TmuVsnz5Kd-58">
          <mxGeometry relative="1" as="geometry" />
        </mxCell>
        <mxCell id="HBaZykuA45TmuVsnz5Kd-96" style="edgeStyle=orthogonalEdgeStyle;shape=connector;curved=1;rounded=0;orthogonalLoop=1;jettySize=auto;html=1;exitX=0;exitY=0;exitDx=0;exitDy=0;entryX=1;entryY=0.5;entryDx=0;entryDy=0;strokeColor=#788AA3;align=center;verticalAlign=middle;fontFamily=Helvetica;fontSize=11;fontColor=default;labelBackgroundColor=none;endArrow=none;endFill=0;" edge="1" parent="1" source="HBaZykuA45TmuVsnz5Kd-32" target="HBaZykuA45TmuVsnz5Kd-40">
          <mxGeometry relative="1" as="geometry" />
        </mxCell>
        <mxCell id="HBaZykuA45TmuVsnz5Kd-124" style="edgeStyle=orthogonalEdgeStyle;shape=connector;curved=0;rounded=0;orthogonalLoop=1;jettySize=auto;html=1;exitX=1;exitY=0.5;exitDx=0;exitDy=0;entryX=0.5;entryY=0;entryDx=0;entryDy=0;strokeColor=#788AA3;align=center;verticalAlign=middle;fontFamily=Helvetica;fontSize=11;fontColor=default;labelBackgroundColor=none;endArrow=none;endFill=0;" edge="1" parent="1" source="HBaZykuA45TmuVsnz5Kd-32" target="HBaZykuA45TmuVsnz5Kd-113">
          <mxGeometry relative="1" as="geometry">
            <Array as="points">
              <mxPoint x="1030" y="740" />
              <mxPoint x="1030" y="1050" />
            </Array>
          </mxGeometry>
        </mxCell>
        <mxCell id="HBaZykuA45TmuVsnz5Kd-126" style="edgeStyle=orthogonalEdgeStyle;shape=connector;curved=1;rounded=0;orthogonalLoop=1;jettySize=auto;html=1;exitX=0.25;exitY=0;exitDx=0;exitDy=0;entryX=1;entryY=0.5;entryDx=0;entryDy=0;strokeColor=#788AA3;align=center;verticalAlign=middle;fontFamily=Helvetica;fontSize=11;fontColor=default;labelBackgroundColor=none;endArrow=none;endFill=0;" edge="1" parent="1" source="HBaZykuA45TmuVsnz5Kd-32" target="HBaZykuA45TmuVsnz5Kd-38">
          <mxGeometry relative="1" as="geometry" />
        </mxCell>
        <mxCell id="HBaZykuA45TmuVsnz5Kd-127" style="edgeStyle=orthogonalEdgeStyle;shape=connector;curved=0;rounded=0;orthogonalLoop=1;jettySize=auto;html=1;exitX=1;exitY=0.75;exitDx=0;exitDy=0;entryX=0;entryY=0.5;entryDx=0;entryDy=0;strokeColor=#788AA3;align=center;verticalAlign=middle;fontFamily=Helvetica;fontSize=11;fontColor=default;labelBackgroundColor=none;endArrow=none;endFill=0;" edge="1" parent="1" source="HBaZykuA45TmuVsnz5Kd-32" target="HBaZykuA45TmuVsnz5Kd-95">
          <mxGeometry relative="1" as="geometry" />
        </mxCell>
        <mxCell id="HBaZykuA45TmuVsnz5Kd-130" style="edgeStyle=orthogonalEdgeStyle;shape=connector;curved=1;rounded=0;orthogonalLoop=1;jettySize=auto;html=1;exitX=0;exitY=1;exitDx=0;exitDy=0;entryX=1;entryY=0.5;entryDx=0;entryDy=0;strokeColor=#788AA3;align=center;verticalAlign=middle;fontFamily=Helvetica;fontSize=11;fontColor=default;labelBackgroundColor=none;endArrow=none;endFill=0;" edge="1" parent="1" source="HBaZykuA45TmuVsnz5Kd-32" target="HBaZykuA45TmuVsnz5Kd-36">
          <mxGeometry relative="1" as="geometry" />
        </mxCell>
        <mxCell id="HBaZykuA45TmuVsnz5Kd-132" style="edgeStyle=orthogonalEdgeStyle;shape=connector;curved=1;rounded=0;orthogonalLoop=1;jettySize=auto;html=1;exitX=0.25;exitY=1;exitDx=0;exitDy=0;entryX=1;entryY=0.5;entryDx=0;entryDy=0;strokeColor=#788AA3;align=center;verticalAlign=middle;fontFamily=Helvetica;fontSize=11;fontColor=default;labelBackgroundColor=none;endArrow=none;endFill=0;" edge="1" parent="1" source="HBaZykuA45TmuVsnz5Kd-32" target="HBaZykuA45TmuVsnz5Kd-131">
          <mxGeometry relative="1" as="geometry" />
        </mxCell>
        <mxCell id="HBaZykuA45TmuVsnz5Kd-32" value="LOTS" style="rounded=0;whiteSpace=wrap;html=1;fontFamily=Helvetica;fontSize=11;fontColor=#46495D;labelBackgroundColor=none;fillColor=#B2C9AB;strokeColor=#788AA3;" vertex="1" parent="1">
          <mxGeometry x="280" y="710" width="120" height="60" as="geometry" />
        </mxCell>
        <mxCell id="HBaZykuA45TmuVsnz5Kd-33" value="&lt;u&gt;LOT_ID&lt;/u&gt;" style="ellipse;whiteSpace=wrap;html=1;fontFamily=Helvetica;fontSize=11;fontColor=#46495D;labelBackgroundColor=none;fillColor=#B2C9AB;strokeColor=#788AA3;" vertex="1" parent="1">
          <mxGeometry x="105" y="690" width="100" height="40" as="geometry" />
        </mxCell>
        <mxCell id="HBaZykuA45TmuVsnz5Kd-34" value="LONGITUDE" style="ellipse;whiteSpace=wrap;html=1;fontFamily=Helvetica;fontSize=11;fontColor=#46495D;labelBackgroundColor=none;fillColor=#B2C9AB;strokeColor=#788AA3;" vertex="1" parent="1">
          <mxGeometry x="105" y="750" width="100" height="40" as="geometry" />
        </mxCell>
        <mxCell id="HBaZykuA45TmuVsnz5Kd-35" value="LATITUDE" style="ellipse;whiteSpace=wrap;html=1;fontFamily=Helvetica;fontSize=11;fontColor=#46495D;labelBackgroundColor=none;fillColor=#B2C9AB;strokeColor=#788AA3;" vertex="1" parent="1">
          <mxGeometry x="105" y="800" width="100" height="40" as="geometry" />
        </mxCell>
        <mxCell id="HBaZykuA45TmuVsnz5Kd-36" value="PRICE" style="ellipse;whiteSpace=wrap;html=1;fontFamily=Helvetica;fontSize=11;fontColor=#46495D;labelBackgroundColor=none;fillColor=#B2C9AB;strokeColor=#788AA3;" vertex="1" parent="1">
          <mxGeometry x="100" y="850" width="100" height="40" as="geometry" />
        </mxCell>
        <mxCell id="HBaZykuA45TmuVsnz5Kd-37" value="LOT_TYPE" style="ellipse;whiteSpace=wrap;html=1;fontFamily=Helvetica;fontSize=11;fontColor=#46495D;labelBackgroundColor=none;fillColor=#B2C9AB;strokeColor=#788AA3;" vertex="1" parent="1">
          <mxGeometry x="355" y="840" width="100" height="40" as="geometry" />
        </mxCell>
        <mxCell id="HBaZykuA45TmuVsnz5Kd-38" value="PENALTY" style="ellipse;whiteSpace=wrap;html=1;fontFamily=Helvetica;fontSize=11;fontColor=#46495D;labelBackgroundColor=none;fillColor=#B2C9AB;strokeColor=#788AA3;" vertex="1" parent="1">
          <mxGeometry x="150" y="590" width="100" height="40" as="geometry" />
        </mxCell>
        <mxCell id="HBaZykuA45TmuVsnz5Kd-39" value="FEE" style="ellipse;whiteSpace=wrap;html=1;fontFamily=Helvetica;fontSize=11;fontColor=#46495D;labelBackgroundColor=none;fillColor=#B2C9AB;strokeColor=#788AA3;" vertex="1" parent="1">
          <mxGeometry x="475" y="840" width="100" height="40" as="geometry" />
        </mxCell>
        <mxCell id="HBaZykuA45TmuVsnz5Kd-40" value="TIME" style="ellipse;whiteSpace=wrap;html=1;fontFamily=Helvetica;fontSize=11;fontColor=#46495D;labelBackgroundColor=none;fillColor=#B2C9AB;strokeColor=#788AA3;" vertex="1" parent="1">
          <mxGeometry x="140" y="640" width="90" height="40" as="geometry" />
        </mxCell>
        <mxCell id="HBaZykuA45TmuVsnz5Kd-51" style="edgeStyle=orthogonalEdgeStyle;shape=connector;curved=0;rounded=0;orthogonalLoop=1;jettySize=auto;html=1;exitX=0.5;exitY=1;exitDx=0;exitDy=0;entryX=0.5;entryY=0;entryDx=0;entryDy=0;strokeColor=#788AA3;align=center;verticalAlign=middle;fontFamily=Helvetica;fontSize=11;fontColor=default;labelBackgroundColor=none;endArrow=none;endFill=0;" edge="1" parent="1" source="HBaZykuA45TmuVsnz5Kd-49" target="HBaZykuA45TmuVsnz5Kd-32">
          <mxGeometry relative="1" as="geometry" />
        </mxCell>
        <mxCell id="HBaZykuA45TmuVsnz5Kd-49" value="MANAGES" style="rhombus;whiteSpace=wrap;html=1;fontFamily=Helvetica;fontSize=11;fontColor=#46495D;labelBackgroundColor=none;fillColor=#B2C9AB;strokeColor=#788AA3;" vertex="1" parent="1">
          <mxGeometry x="300" y="570" width="80" height="80" as="geometry" />
        </mxCell>
        <mxCell id="HBaZykuA45TmuVsnz5Kd-56" style="edgeStyle=orthogonalEdgeStyle;shape=connector;curved=1;rounded=0;orthogonalLoop=1;jettySize=auto;html=1;exitX=0.75;exitY=0;exitDx=0;exitDy=0;entryX=0;entryY=0.5;entryDx=0;entryDy=0;strokeColor=#788AA3;align=center;verticalAlign=middle;fontFamily=Helvetica;fontSize=11;fontColor=default;labelBackgroundColor=none;endArrow=none;endFill=0;" edge="1" parent="1" source="HBaZykuA45TmuVsnz5Kd-52" target="HBaZykuA45TmuVsnz5Kd-54">
          <mxGeometry relative="1" as="geometry" />
        </mxCell>
        <mxCell id="HBaZykuA45TmuVsnz5Kd-115" style="edgeStyle=orthogonalEdgeStyle;shape=connector;curved=1;rounded=0;orthogonalLoop=1;jettySize=auto;html=1;exitX=0.25;exitY=0;exitDx=0;exitDy=0;entryX=1;entryY=0.5;entryDx=0;entryDy=0;strokeColor=#788AA3;align=center;verticalAlign=middle;fontFamily=Helvetica;fontSize=11;fontColor=default;labelBackgroundColor=none;endArrow=none;endFill=0;" edge="1" parent="1" source="HBaZykuA45TmuVsnz5Kd-52" target="HBaZykuA45TmuVsnz5Kd-53">
          <mxGeometry relative="1" as="geometry" />
        </mxCell>
        <mxCell id="HBaZykuA45TmuVsnz5Kd-52" value="SPOTS" style="rounded=0;whiteSpace=wrap;html=1;fontFamily=Helvetica;fontSize=11;fontColor=#46495D;labelBackgroundColor=none;fillColor=#B2C9AB;strokeColor=#788AA3;" vertex="1" parent="1">
          <mxGeometry x="285" y="1000" width="110" height="60" as="geometry" />
        </mxCell>
        <mxCell id="HBaZykuA45TmuVsnz5Kd-53" value="&lt;u&gt;SPOT_ID&lt;/u&gt;" style="ellipse;whiteSpace=wrap;html=1;fontFamily=Helvetica;fontSize=11;fontColor=#46495D;labelBackgroundColor=none;fillColor=#B2C9AB;strokeColor=#788AA3;" vertex="1" parent="1">
          <mxGeometry x="200" y="950" width="80" height="40" as="geometry" />
        </mxCell>
        <mxCell id="HBaZykuA45TmuVsnz5Kd-54" value="STATE" style="ellipse;whiteSpace=wrap;html=1;fontFamily=Helvetica;fontSize=11;fontColor=#46495D;labelBackgroundColor=none;fillColor=#B2C9AB;strokeColor=#788AA3;" vertex="1" parent="1">
          <mxGeometry x="405" y="950" width="85" height="40" as="geometry" />
        </mxCell>
        <mxCell id="HBaZykuA45TmuVsnz5Kd-60" style="edgeStyle=orthogonalEdgeStyle;shape=connector;curved=0;rounded=0;orthogonalLoop=1;jettySize=auto;html=1;exitX=0.5;exitY=1;exitDx=0;exitDy=0;entryX=0.5;entryY=0;entryDx=0;entryDy=0;strokeColor=#788AA3;align=center;verticalAlign=middle;fontFamily=Helvetica;fontSize=11;fontColor=default;labelBackgroundColor=none;endArrow=none;endFill=0;" edge="1" parent="1" source="HBaZykuA45TmuVsnz5Kd-58" target="HBaZykuA45TmuVsnz5Kd-52">
          <mxGeometry relative="1" as="geometry" />
        </mxCell>
        <mxCell id="HBaZykuA45TmuVsnz5Kd-58" value="CONTAINS" style="rhombus;whiteSpace=wrap;html=1;fontFamily=Helvetica;fontSize=11;fontColor=#46495D;labelBackgroundColor=none;fillColor=#B2C9AB;strokeColor=#788AA3;" vertex="1" parent="1">
          <mxGeometry x="300" y="880" width="80" height="80" as="geometry" />
        </mxCell>
        <mxCell id="HBaZykuA45TmuVsnz5Kd-61" value="&lt;u&gt;USER_ID&lt;/u&gt;" style="ellipse;whiteSpace=wrap;html=1;fontFamily=Helvetica;fontSize=11;fontColor=#46495D;labelBackgroundColor=none;fillColor=#B2C9AB;strokeColor=#788AA3;" vertex="1" parent="1">
          <mxGeometry x="140" y="120" width="90" height="40" as="geometry" />
        </mxCell>
        <mxCell id="HBaZykuA45TmuVsnz5Kd-67" style="edgeStyle=orthogonalEdgeStyle;shape=connector;curved=0;rounded=0;orthogonalLoop=1;jettySize=auto;html=1;exitX=1;exitY=0.5;exitDx=0;exitDy=0;entryX=0;entryY=0.5;entryDx=0;entryDy=0;strokeColor=#788AA3;align=center;verticalAlign=middle;fontFamily=Helvetica;fontSize=11;fontColor=default;labelBackgroundColor=none;endArrow=none;endFill=0;" edge="1" parent="1" source="HBaZykuA45TmuVsnz5Kd-63" target="HBaZykuA45TmuVsnz5Kd-66">
          <mxGeometry relative="1" as="geometry" />
        </mxCell>
        <mxCell id="HBaZykuA45TmuVsnz5Kd-167" style="edgeStyle=orthogonalEdgeStyle;rounded=0;orthogonalLoop=1;jettySize=auto;html=1;exitX=0.8;exitY=0.675;exitDx=0;exitDy=0;entryX=0;entryY=0.75;entryDx=0;entryDy=0;strokeColor=#788AA3;fontColor=#46495D;fillColor=#B2C9AB;exitPerimeter=0;endArrow=none;endFill=0;" edge="1" parent="1" source="HBaZykuA45TmuVsnz5Kd-63" target="HBaZykuA45TmuVsnz5Kd-66">
          <mxGeometry relative="1" as="geometry" />
        </mxCell>
        <mxCell id="HBaZykuA45TmuVsnz5Kd-63" value="ARE" style="shape=rhombus;double=1;perimeter=rhombusPerimeter;whiteSpace=wrap;html=1;align=center;fontFamily=Helvetica;fontSize=11;fontColor=#46495D;labelBackgroundColor=none;fillColor=#B2C9AB;strokeColor=#788AA3;" vertex="1" parent="1">
          <mxGeometry x="437.5" y="150" width="120" height="60" as="geometry" />
        </mxCell>
        <mxCell id="HBaZykuA45TmuVsnz5Kd-66" value="ADMINS" style="shape=ext;margin=3;double=1;whiteSpace=wrap;html=1;align=center;fontFamily=Helvetica;fontSize=11;fontColor=#46495D;labelBackgroundColor=none;fillColor=#B2C9AB;strokeColor=#788AA3;" vertex="1" parent="1">
          <mxGeometry x="605" y="160" width="100" height="40" as="geometry" />
        </mxCell>
        <mxCell id="HBaZykuA45TmuVsnz5Kd-72" style="edgeStyle=orthogonalEdgeStyle;shape=connector;curved=0;rounded=0;orthogonalLoop=1;jettySize=auto;html=1;exitX=0.5;exitY=1;exitDx=0;exitDy=0;entryX=0.25;entryY=0;entryDx=0;entryDy=0;strokeColor=#788AA3;align=center;verticalAlign=middle;fontFamily=Helvetica;fontSize=11;fontColor=default;labelBackgroundColor=none;endArrow=none;endFill=0;" edge="1" parent="1" source="HBaZykuA45TmuVsnz5Kd-68" target="HBaZykuA45TmuVsnz5Kd-71">
          <mxGeometry relative="1" as="geometry" />
        </mxCell>
        <mxCell id="HBaZykuA45TmuVsnz5Kd-68" value="ARE" style="shape=rhombus;double=1;perimeter=rhombusPerimeter;whiteSpace=wrap;html=1;align=center;fontFamily=Helvetica;fontSize=11;fontColor=#46495D;labelBackgroundColor=none;fillColor=#B2C9AB;strokeColor=#788AA3;" vertex="1" parent="1">
          <mxGeometry x="420" y="290" width="120" height="60" as="geometry" />
        </mxCell>
        <mxCell id="HBaZykuA45TmuVsnz5Kd-86" style="edgeStyle=orthogonalEdgeStyle;shape=connector;curved=0;rounded=0;orthogonalLoop=1;jettySize=auto;html=1;exitX=0.111;exitY=1.01;exitDx=0;exitDy=0;entryX=0.5;entryY=0;entryDx=0;entryDy=0;strokeColor=#788AA3;align=center;verticalAlign=middle;fontFamily=Helvetica;fontSize=11;fontColor=default;labelBackgroundColor=none;endArrow=none;endFill=0;exitPerimeter=0;" edge="1" parent="1" source="HBaZykuA45TmuVsnz5Kd-71" target="HBaZykuA45TmuVsnz5Kd-85">
          <mxGeometry relative="1" as="geometry" />
        </mxCell>
        <mxCell id="HBaZykuA45TmuVsnz5Kd-91" style="edgeStyle=orthogonalEdgeStyle;shape=connector;curved=0;rounded=0;orthogonalLoop=1;jettySize=auto;html=1;exitX=0.5;exitY=1;exitDx=0;exitDy=0;entryX=0.5;entryY=0;entryDx=0;entryDy=0;strokeColor=#788AA3;align=center;verticalAlign=middle;fontFamily=Helvetica;fontSize=11;fontColor=default;labelBackgroundColor=none;endArrow=none;endFill=0;" edge="1" parent="1" source="HBaZykuA45TmuVsnz5Kd-71" target="HBaZykuA45TmuVsnz5Kd-90">
          <mxGeometry relative="1" as="geometry" />
        </mxCell>
        <mxCell id="HBaZykuA45TmuVsnz5Kd-100" style="edgeStyle=orthogonalEdgeStyle;shape=connector;curved=0;rounded=0;orthogonalLoop=1;jettySize=auto;html=1;exitX=0.75;exitY=1;exitDx=0;exitDy=0;entryX=0.5;entryY=0;entryDx=0;entryDy=0;strokeColor=#788AA3;align=center;verticalAlign=middle;fontFamily=Helvetica;fontSize=11;fontColor=default;labelBackgroundColor=none;endArrow=none;endFill=0;" edge="1" parent="1" source="HBaZykuA45TmuVsnz5Kd-71" target="HBaZykuA45TmuVsnz5Kd-95">
          <mxGeometry relative="1" as="geometry">
            <Array as="points">
              <mxPoint x="605" y="610" />
              <mxPoint x="860" y="610" />
            </Array>
          </mxGeometry>
        </mxCell>
        <mxCell id="HBaZykuA45TmuVsnz5Kd-109" style="edgeStyle=orthogonalEdgeStyle;shape=connector;curved=1;rounded=0;orthogonalLoop=1;jettySize=auto;html=1;exitX=0.75;exitY=0;exitDx=0;exitDy=0;entryX=0.5;entryY=1;entryDx=0;entryDy=0;strokeColor=#788AA3;align=center;verticalAlign=middle;fontFamily=Helvetica;fontSize=11;fontColor=default;labelBackgroundColor=none;endArrow=none;endFill=0;" edge="1" parent="1" source="HBaZykuA45TmuVsnz5Kd-71" target="HBaZykuA45TmuVsnz5Kd-25">
          <mxGeometry relative="1" as="geometry" />
        </mxCell>
        <mxCell id="HBaZykuA45TmuVsnz5Kd-110" style="edgeStyle=orthogonalEdgeStyle;shape=connector;curved=1;rounded=0;orthogonalLoop=1;jettySize=auto;html=1;exitX=1;exitY=0;exitDx=0;exitDy=0;entryX=0;entryY=1;entryDx=0;entryDy=0;strokeColor=#788AA3;align=center;verticalAlign=middle;fontFamily=Helvetica;fontSize=11;fontColor=default;labelBackgroundColor=none;endArrow=none;endFill=0;" edge="1" parent="1" source="HBaZykuA45TmuVsnz5Kd-71" target="HBaZykuA45TmuVsnz5Kd-26">
          <mxGeometry relative="1" as="geometry" />
        </mxCell>
        <mxCell id="HBaZykuA45TmuVsnz5Kd-111" style="edgeStyle=orthogonalEdgeStyle;shape=connector;curved=1;rounded=0;orthogonalLoop=1;jettySize=auto;html=1;exitX=1;exitY=0.25;exitDx=0;exitDy=0;entryX=0;entryY=0.5;entryDx=0;entryDy=0;strokeColor=#788AA3;align=center;verticalAlign=middle;fontFamily=Helvetica;fontSize=11;fontColor=default;labelBackgroundColor=none;endArrow=none;endFill=0;" edge="1" parent="1" source="HBaZykuA45TmuVsnz5Kd-71" target="HBaZykuA45TmuVsnz5Kd-23">
          <mxGeometry relative="1" as="geometry" />
        </mxCell>
        <mxCell id="HBaZykuA45TmuVsnz5Kd-112" style="edgeStyle=orthogonalEdgeStyle;shape=connector;curved=1;rounded=0;orthogonalLoop=1;jettySize=auto;html=1;exitX=1;exitY=0.75;exitDx=0;exitDy=0;entryX=0;entryY=0.5;entryDx=0;entryDy=0;strokeColor=#788AA3;align=center;verticalAlign=middle;fontFamily=Helvetica;fontSize=11;fontColor=default;labelBackgroundColor=none;endArrow=none;endFill=0;" edge="1" parent="1" source="HBaZykuA45TmuVsnz5Kd-71" target="HBaZykuA45TmuVsnz5Kd-24">
          <mxGeometry relative="1" as="geometry" />
        </mxCell>
        <mxCell id="HBaZykuA45TmuVsnz5Kd-114" style="edgeStyle=orthogonalEdgeStyle;shape=connector;curved=0;rounded=0;orthogonalLoop=1;jettySize=auto;html=1;exitX=1;exitY=1;exitDx=0;exitDy=0;entryX=1;entryY=0.5;entryDx=0;entryDy=0;strokeColor=#788AA3;align=center;verticalAlign=middle;fontFamily=Helvetica;fontSize=11;fontColor=default;labelBackgroundColor=none;endArrow=none;endFill=0;" edge="1" parent="1" source="HBaZykuA45TmuVsnz5Kd-71" target="HBaZykuA45TmuVsnz5Kd-113">
          <mxGeometry relative="1" as="geometry">
            <Array as="points">
              <mxPoint x="1060" y="490" />
              <mxPoint x="1060" y="1080" />
            </Array>
          </mxGeometry>
        </mxCell>
        <mxCell id="HBaZykuA45TmuVsnz5Kd-71" value="DRIVER" style="shape=ext;margin=3;double=1;whiteSpace=wrap;html=1;align=center;fontFamily=Helvetica;fontSize=11;fontColor=#46495D;labelBackgroundColor=none;fillColor=#B2C9AB;strokeColor=#788AA3;" vertex="1" parent="1">
          <mxGeometry x="530" y="450" width="100" height="40" as="geometry" />
        </mxCell>
        <mxCell id="HBaZykuA45TmuVsnz5Kd-82" style="edgeStyle=orthogonalEdgeStyle;shape=connector;curved=0;rounded=0;orthogonalLoop=1;jettySize=auto;html=1;exitX=0.5;exitY=1;exitDx=0;exitDy=0;entryX=0.5;entryY=0;entryDx=0;entryDy=0;strokeColor=#788AA3;align=center;verticalAlign=middle;fontFamily=Helvetica;fontSize=11;fontColor=default;labelBackgroundColor=none;endArrow=none;endFill=0;" edge="1" parent="1" source="HBaZykuA45TmuVsnz5Kd-77" target="HBaZykuA45TmuVsnz5Kd-80">
          <mxGeometry relative="1" as="geometry" />
        </mxCell>
        <mxCell id="HBaZykuA45TmuVsnz5Kd-77" value="ARE" style="shape=rhombus;double=1;perimeter=rhombusPerimeter;whiteSpace=wrap;html=1;align=center;fontFamily=Helvetica;fontSize=11;fontColor=#46495D;labelBackgroundColor=none;fillColor=#B2C9AB;strokeColor=#788AA3;" vertex="1" parent="1">
          <mxGeometry x="280" y="305" width="120" height="60" as="geometry" />
        </mxCell>
        <mxCell id="HBaZykuA45TmuVsnz5Kd-84" style="edgeStyle=orthogonalEdgeStyle;shape=connector;curved=0;rounded=0;orthogonalLoop=1;jettySize=auto;html=1;exitX=0.5;exitY=1;exitDx=0;exitDy=0;entryX=0.5;entryY=0;entryDx=0;entryDy=0;strokeColor=#788AA3;align=center;verticalAlign=middle;fontFamily=Helvetica;fontSize=11;fontColor=default;labelBackgroundColor=none;endArrow=none;endFill=0;" edge="1" parent="1" source="HBaZykuA45TmuVsnz5Kd-80" target="HBaZykuA45TmuVsnz5Kd-49">
          <mxGeometry relative="1" as="geometry" />
        </mxCell>
        <mxCell id="HBaZykuA45TmuVsnz5Kd-80" value="LOT_MANAGER" style="shape=ext;margin=3;double=1;whiteSpace=wrap;html=1;align=center;fontFamily=Helvetica;fontSize=11;fontColor=#46495D;labelBackgroundColor=none;fillColor=#B2C9AB;strokeColor=#788AA3;" vertex="1" parent="1">
          <mxGeometry x="290" y="450" width="100" height="40" as="geometry" />
        </mxCell>
        <mxCell id="HBaZykuA45TmuVsnz5Kd-87" style="edgeStyle=orthogonalEdgeStyle;shape=connector;curved=0;rounded=0;orthogonalLoop=1;jettySize=auto;html=1;exitX=0.5;exitY=1;exitDx=0;exitDy=0;entryX=0.75;entryY=0;entryDx=0;entryDy=0;strokeColor=#788AA3;align=center;verticalAlign=middle;fontFamily=Helvetica;fontSize=11;fontColor=default;labelBackgroundColor=none;endArrow=none;endFill=0;" edge="1" parent="1" source="HBaZykuA45TmuVsnz5Kd-85" target="HBaZykuA45TmuVsnz5Kd-32">
          <mxGeometry relative="1" as="geometry" />
        </mxCell>
        <mxCell id="HBaZykuA45TmuVsnz5Kd-89" style="edgeStyle=orthogonalEdgeStyle;shape=connector;curved=1;rounded=0;orthogonalLoop=1;jettySize=auto;html=1;exitX=0;exitY=0;exitDx=0;exitDy=0;entryX=1;entryY=1;entryDx=0;entryDy=0;strokeColor=#788AA3;align=center;verticalAlign=middle;fontFamily=Helvetica;fontSize=11;fontColor=default;labelBackgroundColor=none;endArrow=none;endFill=0;" edge="1" parent="1" source="HBaZykuA45TmuVsnz5Kd-85" target="HBaZykuA45TmuVsnz5Kd-88">
          <mxGeometry relative="1" as="geometry" />
        </mxCell>
        <mxCell id="HBaZykuA45TmuVsnz5Kd-85" value="OWE FEES TO" style="shape=rhombus;perimeter=rhombusPerimeter;whiteSpace=wrap;html=1;align=center;fontFamily=Helvetica;fontSize=11;fontColor=#46495D;labelBackgroundColor=none;fillColor=#B2C9AB;strokeColor=#788AA3;" vertex="1" parent="1">
          <mxGeometry x="437.5" y="535" width="120" height="60" as="geometry" />
        </mxCell>
        <mxCell id="HBaZykuA45TmuVsnz5Kd-88" value="FEE" style="ellipse;whiteSpace=wrap;html=1;align=center;fontFamily=Helvetica;fontSize=11;fontColor=#46495D;labelBackgroundColor=none;fillColor=#B2C9AB;strokeColor=#788AA3;" vertex="1" parent="1">
          <mxGeometry x="395" y="510" width="70" height="25" as="geometry" />
        </mxCell>
        <mxCell id="HBaZykuA45TmuVsnz5Kd-92" style="edgeStyle=orthogonalEdgeStyle;shape=connector;curved=0;rounded=0;orthogonalLoop=1;jettySize=auto;html=1;exitX=0;exitY=1;exitDx=0;exitDy=0;entryX=1;entryY=0.25;entryDx=0;entryDy=0;strokeColor=#788AA3;align=center;verticalAlign=middle;fontFamily=Helvetica;fontSize=11;fontColor=default;labelBackgroundColor=none;endArrow=none;endFill=0;" edge="1" parent="1" source="HBaZykuA45TmuVsnz5Kd-90" target="HBaZykuA45TmuVsnz5Kd-32">
          <mxGeometry relative="1" as="geometry" />
        </mxCell>
        <mxCell id="HBaZykuA45TmuVsnz5Kd-94" style="edgeStyle=orthogonalEdgeStyle;shape=connector;curved=1;rounded=0;orthogonalLoop=1;jettySize=auto;html=1;exitX=1;exitY=1;exitDx=0;exitDy=0;entryX=0.5;entryY=0;entryDx=0;entryDy=0;strokeColor=#788AA3;align=center;verticalAlign=middle;fontFamily=Helvetica;fontSize=11;fontColor=default;labelBackgroundColor=none;endArrow=none;endFill=0;" edge="1" parent="1" source="HBaZykuA45TmuVsnz5Kd-90" target="HBaZykuA45TmuVsnz5Kd-93">
          <mxGeometry relative="1" as="geometry" />
        </mxCell>
        <mxCell id="HBaZykuA45TmuVsnz5Kd-90" value="OWE PENALTIES TO" style="shape=rhombus;perimeter=rhombusPerimeter;whiteSpace=wrap;html=1;align=center;fontFamily=Helvetica;fontSize=11;fontColor=#46495D;labelBackgroundColor=none;fillColor=#B2C9AB;strokeColor=#788AA3;" vertex="1" parent="1">
          <mxGeometry x="505" y="630" width="150" height="60" as="geometry" />
        </mxCell>
        <mxCell id="HBaZykuA45TmuVsnz5Kd-93" value="&lt;font style=&quot;font-size: 9px;&quot;&gt;PENALTY_AMOUNT&lt;/font&gt;" style="ellipse;whiteSpace=wrap;html=1;align=center;fontFamily=Helvetica;fontSize=11;fontColor=#46495D;labelBackgroundColor=none;fillColor=#B2C9AB;strokeColor=#788AA3;" vertex="1" parent="1">
          <mxGeometry x="600" y="695" width="100" height="30" as="geometry" />
        </mxCell>
        <mxCell id="HBaZykuA45TmuVsnz5Kd-105" style="edgeStyle=orthogonalEdgeStyle;shape=connector;curved=1;rounded=0;orthogonalLoop=1;jettySize=auto;html=1;exitX=0;exitY=0;exitDx=0;exitDy=0;entryX=1;entryY=1;entryDx=0;entryDy=0;strokeColor=#788AA3;align=center;verticalAlign=middle;fontFamily=Helvetica;fontSize=11;fontColor=default;labelBackgroundColor=none;endArrow=none;endFill=0;" edge="1" parent="1" source="HBaZykuA45TmuVsnz5Kd-95" target="HBaZykuA45TmuVsnz5Kd-104">
          <mxGeometry relative="1" as="geometry" />
        </mxCell>
        <mxCell id="HBaZykuA45TmuVsnz5Kd-106" style="edgeStyle=orthogonalEdgeStyle;shape=connector;curved=1;rounded=0;orthogonalLoop=1;jettySize=auto;html=1;exitX=1;exitY=0;exitDx=0;exitDy=0;entryX=0;entryY=1;entryDx=0;entryDy=0;strokeColor=#788AA3;align=center;verticalAlign=middle;fontFamily=Helvetica;fontSize=11;fontColor=default;labelBackgroundColor=none;endArrow=none;endFill=0;" edge="1" parent="1" source="HBaZykuA45TmuVsnz5Kd-95" target="HBaZykuA45TmuVsnz5Kd-101">
          <mxGeometry relative="1" as="geometry" />
        </mxCell>
        <mxCell id="HBaZykuA45TmuVsnz5Kd-107" style="edgeStyle=orthogonalEdgeStyle;shape=connector;curved=1;rounded=0;orthogonalLoop=1;jettySize=auto;html=1;exitX=1;exitY=1;exitDx=0;exitDy=0;entryX=0;entryY=0;entryDx=0;entryDy=0;strokeColor=#788AA3;align=center;verticalAlign=middle;fontFamily=Helvetica;fontSize=11;fontColor=default;labelBackgroundColor=none;endArrow=none;endFill=0;" edge="1" parent="1" source="HBaZykuA45TmuVsnz5Kd-95" target="HBaZykuA45TmuVsnz5Kd-102">
          <mxGeometry relative="1" as="geometry" />
        </mxCell>
        <mxCell id="HBaZykuA45TmuVsnz5Kd-108" style="edgeStyle=orthogonalEdgeStyle;shape=connector;curved=1;rounded=0;orthogonalLoop=1;jettySize=auto;html=1;exitX=0;exitY=1;exitDx=0;exitDy=0;entryX=1;entryY=0;entryDx=0;entryDy=0;strokeColor=#788AA3;align=center;verticalAlign=middle;fontFamily=Helvetica;fontSize=11;fontColor=default;labelBackgroundColor=none;endArrow=none;endFill=0;" edge="1" parent="1" source="HBaZykuA45TmuVsnz5Kd-95" target="HBaZykuA45TmuVsnz5Kd-103">
          <mxGeometry relative="1" as="geometry" />
        </mxCell>
        <mxCell id="HBaZykuA45TmuVsnz5Kd-125" style="edgeStyle=orthogonalEdgeStyle;shape=connector;curved=0;rounded=0;orthogonalLoop=1;jettySize=auto;html=1;exitX=0.5;exitY=1;exitDx=0;exitDy=0;entryX=1;entryY=0.25;entryDx=0;entryDy=0;strokeColor=#788AA3;align=center;verticalAlign=middle;fontFamily=Helvetica;fontSize=11;fontColor=default;labelBackgroundColor=none;endArrow=none;endFill=0;" edge="1" parent="1" source="HBaZykuA45TmuVsnz5Kd-95" target="HBaZykuA45TmuVsnz5Kd-52">
          <mxGeometry relative="1" as="geometry" />
        </mxCell>
        <mxCell id="HBaZykuA45TmuVsnz5Kd-95" value="RESERVE" style="shape=rhombus;perimeter=rhombusPerimeter;whiteSpace=wrap;html=1;align=center;fontFamily=Helvetica;fontSize=11;fontColor=#46495D;labelBackgroundColor=none;fillColor=#B2C9AB;strokeColor=#788AA3;" vertex="1" parent="1">
          <mxGeometry x="800" y="890" width="120" height="60" as="geometry" />
        </mxCell>
        <mxCell id="HBaZykuA45TmuVsnz5Kd-101" value="START_TIME" style="ellipse;whiteSpace=wrap;html=1;align=center;fontFamily=Helvetica;fontSize=11;fontColor=#46495D;labelBackgroundColor=none;fillColor=#B2C9AB;strokeColor=#788AA3;" vertex="1" parent="1">
          <mxGeometry x="890" y="840" width="100" height="40" as="geometry" />
        </mxCell>
        <mxCell id="HBaZykuA45TmuVsnz5Kd-102" value="END_TIME" style="ellipse;whiteSpace=wrap;html=1;align=center;fontFamily=Helvetica;fontSize=11;fontColor=#46495D;labelBackgroundColor=none;fillColor=#B2C9AB;strokeColor=#788AA3;" vertex="1" parent="1">
          <mxGeometry x="900" y="960" width="100" height="40" as="geometry" />
        </mxCell>
        <mxCell id="HBaZykuA45TmuVsnz5Kd-103" value="PRICE" style="ellipse;whiteSpace=wrap;html=1;align=center;fontFamily=Helvetica;fontSize=11;fontColor=#46495D;labelBackgroundColor=none;fillColor=#B2C9AB;strokeColor=#788AA3;" vertex="1" parent="1">
          <mxGeometry x="730" y="960" width="100" height="40" as="geometry" />
        </mxCell>
        <mxCell id="HBaZykuA45TmuVsnz5Kd-104" value="STATE" style="ellipse;whiteSpace=wrap;html=1;align=center;fontFamily=Helvetica;fontSize=11;fontColor=#46495D;labelBackgroundColor=none;fillColor=#B2C9AB;strokeColor=#788AA3;" vertex="1" parent="1">
          <mxGeometry x="730" y="840" width="100" height="40" as="geometry" />
        </mxCell>
        <mxCell id="HBaZykuA45TmuVsnz5Kd-116" style="edgeStyle=orthogonalEdgeStyle;shape=connector;curved=0;rounded=0;orthogonalLoop=1;jettySize=auto;html=1;exitX=0;exitY=0.5;exitDx=0;exitDy=0;entryX=1;entryY=0.75;entryDx=0;entryDy=0;strokeColor=#788AA3;align=center;verticalAlign=middle;fontFamily=Helvetica;fontSize=11;fontColor=default;labelBackgroundColor=none;endArrow=none;endFill=0;" edge="1" parent="1" source="HBaZykuA45TmuVsnz5Kd-113" target="HBaZykuA45TmuVsnz5Kd-52">
          <mxGeometry relative="1" as="geometry" />
        </mxCell>
        <mxCell id="HBaZykuA45TmuVsnz5Kd-122" style="edgeStyle=orthogonalEdgeStyle;shape=connector;curved=1;rounded=0;orthogonalLoop=1;jettySize=auto;html=1;exitX=1;exitY=1;exitDx=0;exitDy=0;entryX=0.5;entryY=0;entryDx=0;entryDy=0;strokeColor=#788AA3;align=center;verticalAlign=middle;fontFamily=Helvetica;fontSize=11;fontColor=default;labelBackgroundColor=none;endArrow=none;endFill=0;" edge="1" parent="1" source="HBaZykuA45TmuVsnz5Kd-113" target="HBaZykuA45TmuVsnz5Kd-117">
          <mxGeometry relative="1" as="geometry" />
        </mxCell>
        <mxCell id="HBaZykuA45TmuVsnz5Kd-123" style="edgeStyle=orthogonalEdgeStyle;shape=connector;curved=1;rounded=0;orthogonalLoop=1;jettySize=auto;html=1;exitX=0;exitY=1;exitDx=0;exitDy=0;entryX=0.5;entryY=0;entryDx=0;entryDy=0;strokeColor=#788AA3;align=center;verticalAlign=middle;fontFamily=Helvetica;fontSize=11;fontColor=default;labelBackgroundColor=none;endArrow=none;endFill=0;" edge="1" parent="1" source="HBaZykuA45TmuVsnz5Kd-113" target="HBaZykuA45TmuVsnz5Kd-119">
          <mxGeometry relative="1" as="geometry" />
        </mxCell>
        <mxCell id="HBaZykuA45TmuVsnz5Kd-113" value="LOGS" style="shape=rhombus;perimeter=rhombusPerimeter;whiteSpace=wrap;html=1;align=center;fontFamily=Helvetica;fontSize=11;fontColor=#46495D;labelBackgroundColor=none;fillColor=#B2C9AB;strokeColor=#788AA3;" vertex="1" parent="1">
          <mxGeometry x="920" y="1050" width="120" height="60" as="geometry" />
        </mxCell>
        <mxCell id="HBaZykuA45TmuVsnz5Kd-117" value="&lt;font style=&quot;font-size: 9px;&quot;&gt;RESERVATION_TIME&lt;/font&gt;" style="ellipse;whiteSpace=wrap;html=1;align=center;fontFamily=Helvetica;fontSize=11;fontColor=#46495D;labelBackgroundColor=none;fillColor=#B2C9AB;strokeColor=#788AA3;" vertex="1" parent="1">
          <mxGeometry x="980" y="1127.5" width="110" height="30" as="geometry" />
        </mxCell>
        <mxCell id="HBaZykuA45TmuVsnz5Kd-119" value="&lt;font style=&quot;font-size: 9px;&quot;&gt;DEPARTURE_TIME&lt;/font&gt;" style="ellipse;whiteSpace=wrap;html=1;align=center;fontFamily=Helvetica;fontSize=11;fontColor=#46495D;labelBackgroundColor=none;fillColor=#B2C9AB;strokeColor=#788AA3;" vertex="1" parent="1">
          <mxGeometry x="860" y="1130" width="100" height="25" as="geometry" />
        </mxCell>
        <mxCell id="HBaZykuA45TmuVsnz5Kd-129" style="edgeStyle=orthogonalEdgeStyle;shape=connector;curved=1;rounded=0;orthogonalLoop=1;jettySize=auto;html=1;exitX=0;exitY=0;exitDx=0;exitDy=0;entryX=1;entryY=0.75;entryDx=0;entryDy=0;strokeColor=#788AA3;align=center;verticalAlign=middle;fontFamily=Helvetica;fontSize=11;fontColor=default;labelBackgroundColor=none;endArrow=none;endFill=0;" edge="1" parent="1" source="HBaZykuA45TmuVsnz5Kd-128" target="HBaZykuA45TmuVsnz5Kd-32">
          <mxGeometry relative="1" as="geometry" />
        </mxCell>
        <mxCell id="HBaZykuA45TmuVsnz5Kd-128" value="REVENUE" style="ellipse;whiteSpace=wrap;html=1;align=center;fontFamily=Helvetica;fontSize=11;fontColor=#46495D;labelBackgroundColor=none;fillColor=#B2C9AB;strokeColor=#788AA3;" vertex="1" parent="1">
          <mxGeometry x="490" y="780" width="100" height="40" as="geometry" />
        </mxCell>
        <mxCell id="HBaZykuA45TmuVsnz5Kd-131" value="DETAILS" style="ellipse;whiteSpace=wrap;html=1;align=center;fontFamily=Helvetica;fontSize=11;fontColor=#46495D;labelBackgroundColor=none;fillColor=#B2C9AB;strokeColor=#788AA3;" vertex="1" parent="1">
          <mxGeometry x="120" y="900" width="100" height="40" as="geometry" />
        </mxCell>
        <mxCell id="HBaZykuA45TmuVsnz5Kd-133" value="1" style="text;html=1;align=center;verticalAlign=middle;whiteSpace=wrap;rounded=0;fontFamily=Helvetica;fontSize=11;fontColor=#46495D;labelBackgroundColor=none;" vertex="1" parent="1">
          <mxGeometry x="410" y="150" width="60" height="30" as="geometry" />
        </mxCell>
        <mxCell id="HBaZykuA45TmuVsnz5Kd-134" value="1" style="text;html=1;align=center;verticalAlign=middle;whiteSpace=wrap;rounded=0;fontFamily=Helvetica;fontSize=11;fontColor=#46495D;labelBackgroundColor=none;" vertex="1" parent="1">
          <mxGeometry x="530" y="150" width="60" height="30" as="geometry" />
        </mxCell>
        <mxCell id="HBaZykuA45TmuVsnz5Kd-135" value="1" style="text;html=1;align=center;verticalAlign=middle;whiteSpace=wrap;rounded=0;fontFamily=Helvetica;fontSize=11;fontColor=#46495D;labelBackgroundColor=none;" vertex="1" parent="1">
          <mxGeometry x="490" y="275" width="20" height="30" as="geometry" />
        </mxCell>
        <mxCell id="HBaZykuA45TmuVsnz5Kd-136" value="1" style="text;html=1;align=center;verticalAlign=middle;whiteSpace=wrap;rounded=0;fontFamily=Helvetica;fontSize=11;fontColor=#46495D;labelBackgroundColor=none;" vertex="1" parent="1">
          <mxGeometry x="490" y="340" width="20" height="30" as="geometry" />
        </mxCell>
        <mxCell id="HBaZykuA45TmuVsnz5Kd-137" value="1" style="text;html=1;align=center;verticalAlign=middle;whiteSpace=wrap;rounded=0;fontFamily=Helvetica;fontSize=11;fontColor=#46495D;labelBackgroundColor=none;" vertex="1" parent="1">
          <mxGeometry x="330" y="290" width="60" height="30" as="geometry" />
        </mxCell>
        <mxCell id="HBaZykuA45TmuVsnz5Kd-138" value="1" style="text;html=1;align=center;verticalAlign=middle;whiteSpace=wrap;rounded=0;fontFamily=Helvetica;fontSize=11;fontColor=#46495D;labelBackgroundColor=none;" vertex="1" parent="1">
          <mxGeometry x="350" y="360" width="15" height="30" as="geometry" />
        </mxCell>
        <mxCell id="HBaZykuA45TmuVsnz5Kd-141" value="M" style="text;html=1;align=center;verticalAlign=middle;whiteSpace=wrap;rounded=0;fontFamily=Helvetica;fontSize=11;fontColor=#46495D;labelBackgroundColor=none;" vertex="1" parent="1">
          <mxGeometry x="450" y="590" width="60" height="30" as="geometry" />
        </mxCell>
        <mxCell id="HBaZykuA45TmuVsnz5Kd-142" value="N" style="text;html=1;align=center;verticalAlign=middle;whiteSpace=wrap;rounded=0;fontFamily=Helvetica;fontSize=11;fontColor=#46495D;labelBackgroundColor=none;" vertex="1" parent="1">
          <mxGeometry x="455" y="510" width="60" height="30" as="geometry" />
        </mxCell>
        <mxCell id="HBaZykuA45TmuVsnz5Kd-143" value="1" style="text;html=1;align=center;verticalAlign=middle;whiteSpace=wrap;rounded=0;fontFamily=Helvetica;fontSize=11;fontColor=#46495D;labelBackgroundColor=none;" vertex="1" parent="1">
          <mxGeometry x="295" y="550" width="60" height="30" as="geometry" />
        </mxCell>
        <mxCell id="HBaZykuA45TmuVsnz5Kd-145" value="N" style="text;html=1;align=center;verticalAlign=middle;whiteSpace=wrap;rounded=0;fontFamily=Helvetica;fontSize=11;fontColor=#46495D;labelBackgroundColor=none;" vertex="1" parent="1">
          <mxGeometry x="320" y="640" width="10" height="30" as="geometry" />
        </mxCell>
        <mxCell id="HBaZykuA45TmuVsnz5Kd-148" value="N" style="text;html=1;align=center;verticalAlign=middle;whiteSpace=wrap;rounded=0;fontFamily=Helvetica;fontSize=11;fontColor=#46495D;labelBackgroundColor=none;" vertex="1" parent="1">
          <mxGeometry x="540" y="610" width="60" height="30" as="geometry" />
        </mxCell>
        <mxCell id="HBaZykuA45TmuVsnz5Kd-149" value="M" style="text;html=1;align=center;verticalAlign=middle;whiteSpace=wrap;rounded=0;fontFamily=Helvetica;fontSize=11;fontColor=#46495D;labelBackgroundColor=none;" vertex="1" parent="1">
          <mxGeometry x="505" y="680" width="60" height="30" as="geometry" />
        </mxCell>
        <mxCell id="HBaZykuA45TmuVsnz5Kd-150" value="N" style="text;html=1;align=center;verticalAlign=middle;whiteSpace=wrap;rounded=0;fontFamily=Helvetica;fontSize=11;fontColor=#46495D;labelBackgroundColor=none;" vertex="1" parent="1">
          <mxGeometry x="310" y="950" width="30" height="30" as="geometry" />
        </mxCell>
        <mxCell id="HBaZykuA45TmuVsnz5Kd-151" value="1" style="text;html=1;align=center;verticalAlign=middle;whiteSpace=wrap;rounded=0;fontFamily=Helvetica;fontSize=11;fontColor=#46495D;labelBackgroundColor=none;" vertex="1" parent="1">
          <mxGeometry x="290" y="860" width="60" height="30" as="geometry" />
        </mxCell>
        <mxCell id="HBaZykuA45TmuVsnz5Kd-152" value="K" style="text;html=1;align=center;verticalAlign=middle;whiteSpace=wrap;rounded=0;fontFamily=Helvetica;fontSize=11;fontColor=#46495D;labelBackgroundColor=none;" vertex="1" parent="1">
          <mxGeometry x="840" y="870" width="60" height="30" as="geometry" />
        </mxCell>
        <mxCell id="HBaZykuA45TmuVsnz5Kd-153" value="M" style="text;html=1;align=center;verticalAlign=middle;whiteSpace=wrap;rounded=0;fontFamily=Helvetica;fontSize=11;fontColor=#46495D;labelBackgroundColor=none;" vertex="1" parent="1">
          <mxGeometry x="760" y="890" width="60" height="30" as="geometry" />
        </mxCell>
        <mxCell id="HBaZykuA45TmuVsnz5Kd-154" value="N" style="text;html=1;align=center;verticalAlign=middle;whiteSpace=wrap;rounded=0;fontFamily=Helvetica;fontSize=11;fontColor=#46495D;labelBackgroundColor=none;" vertex="1" parent="1">
          <mxGeometry x="840" y="950" width="60" height="30" as="geometry" />
        </mxCell>
        <mxCell id="HBaZykuA45TmuVsnz5Kd-156" value="K" style="text;html=1;align=center;verticalAlign=middle;whiteSpace=wrap;rounded=0;fontFamily=Helvetica;fontSize=11;fontColor=#46495D;labelBackgroundColor=none;" vertex="1" parent="1">
          <mxGeometry x="950" y="1020" width="60" height="30" as="geometry" />
        </mxCell>
        <mxCell id="HBaZykuA45TmuVsnz5Kd-158" value="M" style="text;html=1;align=center;verticalAlign=middle;whiteSpace=wrap;rounded=0;fontFamily=Helvetica;fontSize=11;fontColor=#46495D;labelBackgroundColor=none;" vertex="1" parent="1">
          <mxGeometry x="1020" y="1080" width="60" height="30" as="geometry" />
        </mxCell>
        <mxCell id="HBaZykuA45TmuVsnz5Kd-159" value="N" style="text;html=1;align=center;verticalAlign=middle;whiteSpace=wrap;rounded=0;fontFamily=Helvetica;fontSize=11;fontColor=#46495D;labelBackgroundColor=none;" vertex="1" parent="1">
          <mxGeometry x="880" y="1080" width="60" height="30" as="geometry" />
        </mxCell>
        <mxCell id="HBaZykuA45TmuVsnz5Kd-161" style="edgeStyle=orthogonalEdgeStyle;rounded=0;orthogonalLoop=1;jettySize=auto;html=1;exitX=0.398;exitY=0.909;exitDx=0;exitDy=0;strokeColor=#788AA3;fontColor=#46495D;fillColor=#B2C9AB;exitPerimeter=0;endArrow=none;endFill=0;" edge="1" parent="1" source="HBaZykuA45TmuVsnz5Kd-68">
          <mxGeometry relative="1" as="geometry">
            <mxPoint x="541" y="450" as="targetPoint" />
            <Array as="points">
              <mxPoint x="470" y="345" />
              <mxPoint x="470" y="410" />
              <mxPoint x="550" y="410" />
              <mxPoint x="550" y="450" />
            </Array>
          </mxGeometry>
        </mxCell>
        <mxCell id="HBaZykuA45TmuVsnz5Kd-164" style="edgeStyle=orthogonalEdgeStyle;rounded=0;orthogonalLoop=1;jettySize=auto;html=1;exitX=0.437;exitY=0.972;exitDx=0;exitDy=0;entryX=0.42;entryY=0.031;entryDx=0;entryDy=0;entryPerimeter=0;strokeColor=#788AA3;fontColor=#46495D;fillColor=#B2C9AB;exitPerimeter=0;endArrow=none;endFill=0;" edge="1" parent="1" source="HBaZykuA45TmuVsnz5Kd-77" target="HBaZykuA45TmuVsnz5Kd-80">
          <mxGeometry relative="1" as="geometry" />
        </mxCell>
        <mxCell id="HBaZykuA45TmuVsnz5Kd-165" style="edgeStyle=orthogonalEdgeStyle;rounded=0;orthogonalLoop=1;jettySize=auto;html=1;exitX=0.585;exitY=0.948;exitDx=0;exitDy=0;entryX=0.549;entryY=-0.016;entryDx=0;entryDy=0;entryPerimeter=0;strokeColor=#788AA3;fontColor=#46495D;fillColor=#B2C9AB;exitPerimeter=0;endArrow=none;endFill=0;" edge="1" parent="1" source="HBaZykuA45TmuVsnz5Kd-49" target="HBaZykuA45TmuVsnz5Kd-32">
          <mxGeometry relative="1" as="geometry" />
        </mxCell>
        <mxCell id="HBaZykuA45TmuVsnz5Kd-168" style="edgeStyle=orthogonalEdgeStyle;rounded=0;orthogonalLoop=1;jettySize=auto;html=1;exitX=0.598;exitY=0.936;exitDx=0;exitDy=0;entryX=0.578;entryY=-0.004;entryDx=0;entryDy=0;entryPerimeter=0;strokeColor=#788AA3;fontColor=#46495D;fillColor=#B2C9AB;exitPerimeter=0;endArrow=none;endFill=0;" edge="1" parent="1" source="HBaZykuA45TmuVsnz5Kd-58" target="HBaZykuA45TmuVsnz5Kd-52">
          <mxGeometry relative="1" as="geometry" />
        </mxCell>
      </root>
    </mxGraphModel>
  </diagram>
</mxfile>
